<svg width="138" height="138" viewBox="0 0 138 138" fill="none" xmlns="http://www.w3.org/2000/svg">
<path d="M123.223 88.1758C119.255 99.385 111.911 109.089 102.2 115.952C92.4902 122.815 80.8915 126.5 69.0007 126.5C43.971 126.5 22.673 110.503 14.7782 88.1758C31.0771 98.2234 49.8537 103.53 69.0007 103.5C88.8842 103.5 107.457 97.8933 123.223 88.1758ZM121.475 45.4533C125.2 53.7444 126.899 62.8028 126.432 71.8803C110.14 84.9344 89.8776 92.0326 69.0007 91.9995C47.2772 91.9995 27.3132 84.467 11.5697 71.8745C11.1031 62.799 12.802 53.7426 16.5262 45.4533C31.5709 57.0205 50.0234 63.2784 69.0007 63.2495C88.7462 63.2495 106.939 56.614 121.475 45.4533ZM69.0007 11.4995C78.1176 11.4936 87.1049 13.6578 95.2197 17.8132C103.334 21.9686 110.344 27.9958 115.668 35.3965C102.43 46.0064 85.9654 51.7759 69.0007 51.7495C51.3482 51.7495 35.1217 45.6315 22.3337 35.3965C27.6568 27.9948 34.6658 21.9668 42.7808 17.8113C50.8958 13.6558 59.8836 11.4922 69.0007 11.4995Z" fill="#09244B"/>
</svg>
